<?xml version="1.0" encoding="utf-8"?>
<!-- Generator: Adobe Illustrator 24.0.2, SVG Export Plug-In . SVG Version: 6.00 Build 0)  -->
<svg version="1.1" id="Layer_1" xmlns="http://www.w3.org/2000/svg" xmlns:xlink="http://www.w3.org/1999/xlink" x="0px" y="0px"
	 viewBox="0 0 424.2 424.2" style="enable-background:new 0 0 424.2 424.2;" xml:space="preserve">
<style type="text/css">
	.st0{fill:#092934;}
	.st1{fill:#FFC247;}
</style>
<title>logo_icon_1</title>
<g id="Layer_2_1_">
	<g id="svg8">
		<g id="layer1">
			<g id="g5997">
				<g id="path26">
					<circle class="st0" cx="212.1" cy="212.1" r="206.1"/>
					<path class="st1" d="M212.1,12c110.6,0.1,200.1,89.8,200,200.3C412.1,292.7,364,365.2,290,396.5
						c-102.2,42.2-219.2-6.4-261.4-108.6c-41.7-101,5.3-216.8,105.7-260.2C158.9,17.3,185.4,11.9,212.1,12 M212.1,0
						C95,0,0,95,0,212.1s95,212.1,212.1,212.1s212.1-95,212.1-212.1S329.3,0,212.1,0z"/>
				</g>
			</g>
		</g>
		<path class="st1" d="M147.7,116.8H189V187h49.4v-70.2h41.3V299h-41.3V223H189v76h-41.3L147.7,116.8z"/>
	</g>
</g>
</svg>
