<?xml version="1.0" encoding="utf-8"?>
<!-- Generator: Adobe Illustrator 24.0.2, SVG Export Plug-In . SVG Version: 6.00 Build 0)  -->
<svg version="1.1" id="Layer_1" xmlns="http://www.w3.org/2000/svg" xmlns:xlink="http://www.w3.org/1999/xlink" x="0px" y="0px"
	 viewBox="0 0 424.2 424.2" style="enable-background:new 0 0 424.2 424.2;" xml:space="preserve">
<style type="text/css">
	.st0{fill:none;}
	.st1{fill:#FFC247;}
</style>
<title>logo_1</title>
<g id="Layer_2_1_">
	<g id="svg8">
		<g id="layer1">
			<g id="g5997">
				<g id="path26">
					<circle class="st0" cx="212.1" cy="212.1" r="206.1"/>
					<path class="st1" d="M212.1,20.4c105.9,0.1,191.7,86,191.6,191.9c-0.1,77-46.1,146.4-117,176.4c-97.9,40.4-210-6.2-250.4-104.1
						C-3.6,187.9,41.4,77,137.5,35.5C161.1,25.5,186.5,20.4,212.1,20.4 M212.1,0C95,0,0,95,0,212.1s95,212.1,212.1,212.1
						s212.1-95,212.1-212.1S329.3,0,212.1,0z"/>
				</g>
			</g>
		</g>
		<path class="st1" d="M146.1,109.3h14.5v90h103v-90h14.5v205.6h-14.4V212h-103v102.9h-14.5V109.3z"/>
	</g>
</g>
</svg>
